<?xml version="1.0" standalone="no"?>
<!DOCTYPE svg PUBLIC "-//W3C//DTD SVG 20010904//EN"
 "http://www.w3.org/TR/2001/REC-SVG-20010904/DTD/svg10.dtd">
<svg version="1.0" xmlns="http://www.w3.org/2000/svg"
 width="589.000000pt" height="589.000000pt" viewBox="0 0 589.000000 589.000000"
 preserveAspectRatio="xMidYMid meet">
<metadata>
Created by potrace 1.11, written by Peter Selinger 2001-2013
</metadata>
<g transform="translate(0.000000,589.000000) scale(0.100000,-0.100000)"
fill="#000000" stroke="none">
<path d="M2639 5885 c-2 -2 -27 -6 -54 -8 -70 -7 -135 -17 -165 -24 -14 -3
-35 -7 -47 -9 -83 -11 -403 -103 -498 -144 -11 -5 -63 -27 -115 -49 -84 -37
-134 -61 -260 -129 -71 -39 -86 -47 -117 -69 -17 -13 -36 -23 -42 -23 -6 0
-11 -4 -11 -10 0 -5 -5 -10 -10 -10 -6 0 -16 -5 -23 -10 -7 -6 -53 -41 -103
-78 -50 -37 -111 -83 -134 -102 -108 -89 -270 -245 -270 -261 0 -5 -7 -9 -15
-9 -8 0 -15 -3 -15 -7 0 -5 -16 -26 -36 -48 -20 -22 -48 -56 -62 -75 -15 -19
-38 -47 -51 -62 -13 -15 -31 -39 -40 -52 -62 -91 -98 -143 -109 -154 -6 -7
-12 -20 -12 -28 0 -8 -4 -14 -8 -14 -5 0 -18 -19 -31 -42 -12 -24 -32 -59 -43
-78 -31 -50 -100 -193 -137 -280 -18 -41 -36 -84 -41 -95 -13 -31 -51 -138
-55 -155 -2 -8 -10 -35 -18 -60 -17 -48 -62 -232 -72 -290 -3 -19 -8 -42 -10
-50 -2 -8 -6 -35 -9 -60 -3 -25 -9 -56 -13 -70 -3 -14 -7 -178 -9 -365 -2
-331 -1 -344 26 -500 15 -88 42 -212 59 -275 18 -63 34 -122 36 -130 3 -13 37
-111 52 -150 4 -8 7 -17 8 -20 1 -3 7 -18 14 -35 6 -16 17 -43 23 -60 49 -125
272 -523 299 -533 5 -2 9 -9 9 -16 0 -7 9 -21 20 -31 11 -10 20 -24 20 -31 0
-7 3 -14 8 -16 4 -1 36 -39 72 -83 98 -122 220 -250 328 -344 97 -85 105 -91
182 -149 41 -32 77 -60 78 -64 2 -5 8 -8 13 -8 11 0 72 -42 77 -52 2 -5 8 -8
12 -8 5 0 28 -13 52 -29 195 -129 625 -312 818 -347 8 -2 33 -7 55 -13 22 -5
60 -15 85 -21 147 -35 250 -44 570 -46 179 -2 345 1 370 5 25 5 65 11 90 15
94 12 200 34 330 68 231 61 548 193 730 304 36 22 76 47 89 55 14 8 30 17 35
22 6 4 57 40 112 80 174 124 340 273 470 422 27 31 64 72 82 91 17 20 32 39
32 42 0 4 10 18 23 32 35 38 162 221 180 260 4 8 16 29 27 45 10 17 27 46 37
65 9 19 19 37 22 40 13 11 95 190 141 304 60 150 121 348 136 436 2 14 9 45
14 70 16 68 20 91 25 135 3 22 10 65 15 95 9 54 7 676 -2 735 -23 141 -31 185
-38 215 -5 19 -11 46 -14 60 -3 14 -12 52 -21 84 -8 33 -17 67 -19 75 -2 9 -5
23 -9 31 -3 8 -20 58 -37 110 -18 52 -45 126 -61 164 -16 37 -29 74 -29 82 0
8 -4 14 -10 14 -5 0 -12 11 -16 25 -8 30 -130 263 -150 286 -8 8 -14 19 -14
23 0 6 -41 72 -62 101 -4 6 -35 48 -69 94 -72 99 -74 101 -116 147 -17 19 -29
34 -27 34 9 0 -197 212 -263 270 -30 28 -138 118 -163 137 -55 43 -113 84
-165 118 -33 22 -62 42 -65 45 -6 6 -20 14 -159 92 -57 32 -105 58 -106 58 -2
0 -41 18 -87 39 -96 46 -209 91 -288 115 -30 10 -62 20 -70 23 -8 3 -24 8 -35
10 -11 2 -31 7 -45 13 -73 27 -268 67 -445 89 -68 9 -648 14 -656 6z"/>
</g>
</svg>
